<!--?xml version="1.0" standalone="no"?-->
              <svg id="sw-js-blob-svg" viewBox="0 0 100 100" xmlns="http://www.w3.org/2000/svg" version="1.1">
                    <defs> 
                        <linearGradient id="sw-gradient" x1="0" x2="1" y1="1" y2="0">
                            <stop id="stop1" stop-color="rgba(55, 248, 172.816, 1)" offset="0%"></stop>
                            <stop id="stop2" stop-color="rgba(232.059, 31, 251, 1)" offset="100%"></stop>
                        </linearGradient>
                    </defs>
                <path fill="url(#sw-gradient)" d="M24.6,-28.5C30.8,-24,34.2,-15.3,35.3,-6.6C36.4,2.1,35.3,10.9,31,17.6C26.8,24.2,19.4,28.7,11.8,30.7C4.2,32.7,-3.7,32.3,-12.2,30.5C-20.7,28.7,-29.8,25.6,-33.6,19.2C-37.4,12.9,-36,3.4,-33.6,-5.2C-31.3,-13.9,-28,-21.7,-22.3,-26.3C-16.5,-30.9,-8.3,-32.3,0.5,-32.8C9.2,-33.3,18.3,-33,24.6,-28.5Z" width="100%" height="100%" transform="translate(50 50)" stroke-width="0" style="transition: 0.3s;"></path>
              </svg>